<?xml version="1.0" encoding="UTF-8"?>
<svg xmlns="http://www.w3.org/2000/svg" xmlns:xlink="http://www.w3.org/1999/xlink" width="25px" height="25px" viewBox="0 0 25 25" version="1.1">
<g id="surface1">
<path style=" stroke:none;fill-rule:nonzero;fill:rgb(0%,0%,0%);fill-opacity:1;" d="M 24.816406 12.046875 L 21.28125 8.507812 C 21.03125 8.265625 20.640625 8.265625 20.394531 8.507812 C 20.148438 8.753906 20.148438 9.148438 20.394531 9.394531 L 22.867188 11.867188 L 13.125 11.867188 L 13.125 2.136719 L 15.59375 4.609375 C 15.839844 4.851562 16.234375 4.851562 16.480469 4.609375 C 16.726562 4.359375 16.726562 3.96875 16.480469 3.722656 L 12.941406 0.183594 C 12.695312 -0.0625 12.304688 -0.0625 12.054688 0.183594 L 8.519531 3.71875 C 8.273438 3.96875 8.273438 4.359375 8.519531 4.605469 C 8.765625 4.851562 9.160156 4.851562 9.40625 4.605469 L 11.875 2.132812 L 11.875 11.867188 L 2.136719 11.867188 L 4.605469 9.394531 C 4.851562 9.148438 4.851562 8.757812 4.605469 8.507812 C 4.359375 8.265625 3.96875 8.265625 3.722656 8.507812 L 0.183594 12.046875 C -0.0625 12.292969 -0.0625 12.6875 0.183594 12.933594 L 3.722656 16.46875 C 3.96875 16.714844 4.359375 16.714844 4.605469 16.46875 C 4.851562 16.226562 4.851562 15.828125 4.605469 15.585938 L 2.136719 13.117188 L 11.875 13.117188 L 11.875 22.863281 L 9.40625 20.394531 C 9.160156 20.148438 8.765625 20.148438 8.519531 20.394531 C 8.273438 20.640625 8.273438 21.03125 8.519531 21.28125 L 12.058594 24.816406 C 12.304688 25.0625 12.695312 25.0625 12.945312 24.816406 L 16.480469 21.28125 C 16.726562 21.035156 16.726562 20.640625 16.480469 20.394531 C 16.234375 20.148438 15.839844 20.148438 15.59375 20.394531 L 13.125 22.867188 L 13.125 13.117188 L 22.867188 13.117188 L 20.394531 15.585938 C 20.148438 15.832031 20.148438 16.226562 20.394531 16.46875 C 20.640625 16.71875 21.035156 16.71875 21.28125 16.46875 L 24.816406 12.933594 C 25.0625 12.6875 25.0625 12.292969 24.816406 12.046875 Z M 24.816406 12.046875 "/>
</g>
</svg>
